<?xml version="1.0" standalone="no"?>
<!DOCTYPE svg PUBLIC "-//W3C//DTD SVG 20010904//EN"
 "http://www.w3.org/TR/2001/REC-SVG-20010904/DTD/svg10.dtd">
<svg version="1.0" xmlns="http://www.w3.org/2000/svg"
 width="1024.000000pt" height="1024.000000pt" viewBox="0 0 1024.000000 1024.000000"
 preserveAspectRatio="xMidYMid meet">

<g transform="translate(0.000000,1024.000000) scale(0.100000,-0.100000)"
fill="#000000" stroke="none">
<path d="M0 5120 l0 -5120 5120 0 5120 0 0 5120 0 5120 -5120 0 -5120 0 0
-5120z m5305 4053 c10 -54 81 -205 137 -293 37 -57 63 -84 106 -112 74 -47
246 -132 300 -148 23 -7 42 -16 42 -19 0 -3 -46 -28 -101 -56 -56 -27 -142
-74 -191 -102 -50 -29 -93 -53 -97 -53 -9 0 -46 -79 -64 -135 -6 -22 -16 -38
-21 -37 -5 2 -13 -2 -18 -10 -6 -9 -7 -6 -3 10 4 13 2 22 -4 22 -6 0 -11 -4
-11 -10 0 -13 -27 -13 -35 0 -3 6 1 7 12 4 17 -5 17 -5 0 6 -10 7 -21 9 -24 6
-6 -6 64 -115 124 -194 22 -29 45 -82 68 -160 59 -190 35 -162 235 -282 58
-35 123 -75 145 -89 l40 -26 -319 -5 -320 -5 65 -55 c35 -30 57 -46 48 -35
-23 28 -32 46 -22 43 4 -2 9 1 10 6 1 4 14 15 29 22 20 11 76 14 229 14 112 0
210 -3 219 -6 22 -8 13 -16 -154 -125 -80 -53 -153 -103 -162 -112 -9 -9 -20
-17 -24 -17 -3 0 -44 32 -90 70 l-83 71 -6 -28 c-4 -15 -13 -57 -21 -91 -18
-77 -12 -101 24 -104 71 -5 88 -3 100 11 11 14 12 13 7 -9 -5 -17 2 -12 20 18
35 56 41 53 11 -5 -23 -44 -106 -232 -106 -240 0 -1 17 -12 39 -22 56 -29 131
-108 157 -166 61 -134 30 -312 -73 -426 -40 -44 -100 -78 -175 -100 l-48 -13
30 -28 c21 -19 30 -36 30 -58 0 -28 -3 -31 -22 -24 -12 3 -47 8 -77 9 -69 4
-75 18 -30 69 17 20 30 38 28 40 -2 2 -30 11 -61 20 -54 15 -131 65 -171 110
-10 12 -32 50 -49 85 -85 175 -18 394 146 482 53 27 53 19 -5 152 -29 70 -33
85 -18 71 11 -10 41 -24 65 -30 40 -10 44 -9 40 5 -4 11 -1 10 9 -3 11 -14 15
-16 15 -5 0 12 2 12 10 -1 9 -13 10 -13 10 0 0 13 1 13 10 0 16 -25 11 0 -25
125 -19 66 -35 128 -35 138 0 9 -4 17 -10 17 -5 0 -10 -3 -10 -7 0 -5 -36 -36
-80 -71 l-79 -63 -59 43 c-33 24 -103 72 -156 108 -53 36 -96 71 -96 78 0 6
12 13 28 13 l27 1 -30 8 c-19 5 19 8 102 9 80 1 134 -3 138 -9 4 -7 32 -8 73
-4 51 4 63 3 52 -6 -12 -8 -1 -10 47 -8 l62 3 -27 -29 -27 -30 41 32 c86 66
101 63 -251 62 -174 -1 -319 1 -322 3 -2 3 52 37 119 77 68 41 139 83 158 94
19 12 47 28 63 36 23 11 32 28 53 99 46 155 75 229 104 268 39 50 39 96 -1
217 l-32 96 26 32 c13 18 54 64 90 103 36 38 64 71 62 73 -7 8 -75 -62 -127
-130 -29 -38 -57 -68 -63 -68 -7 0 -52 24 -102 54 -136 82 -254 146 -269 146
-30 0 -11 16 45 38 92 36 293 146 326 179 33 33 150 254 185 350 12 35 26 60
30 58 4 -3 11 -22 15 -42z m-649 -1064 c128 -39 248 -127 313 -227 30 -47 40
-85 22 -80 -12 4 -50 -41 -57 -66 -4 -18 -18 -8 -102 75 -110 107 -170 142
-283 160 -88 15 -184 0 -268 -42 -66 -33 -157 -123 -190 -187 -37 -72 -66
-213 -41 -197 6 4 10 -11 10 -38 0 -54 32 -154 72 -227 101 -182 365 -474 653
-722 100 -87 121 -109 123 -135 4 -42 1 -42 -263 -68 -88 -8 -181 -17 -206
-19 l-47 -5 5 42 c3 23 7 43 8 45 2 2 43 10 91 17 104 17 184 36 184 45 0 3
-54 49 -120 103 l-120 97 7 -45 c6 -49 -11 -128 -33 -146 -7 -6 -11 -16 -8
-24 14 -36 -63 -116 -145 -151 -38 -16 -129 -18 -151 -4 -8 5 -10 10 -5 11 29
2 49 9 54 17 3 5 24 14 46 19 22 5 39 15 37 22 -2 9 3 9 19 0 18 -9 21 -9 17
3 -6 15 28 18 51 3 9 -5 22 3 39 26 29 36 35 56 21 65 -5 3 -9 -3 -10 -13 0
-10 -3 -13 -5 -7 -3 7 -28 2 -72 -13 -99 -33 -230 -27 -314 17 -21 11 -41 20
-43 20 -12 0 -3 -34 19 -68 28 -43 55 -69 114 -107 53 -35 79 -35 569 -16 351
13 353 13 385 -8 18 -11 58 -35 88 -53 l55 -33 -45 -6 c-25 -3 -171 -9 -325
-13 -539 -13 -1089 -60 -1319 -111 -60 -14 -111 -24 -112 -22 -1 1 -4 30 -6
64 l-4 62 85 20 c119 28 275 48 480 62 l174 12 -49 24 c-57 28 -95 62 -138
124 l-31 47 -80 -54 c-136 -91 -247 -114 -337 -69 -38 19 -39 19 -32 0 4 -10
2 -13 -8 -10 -8 3 -27 1 -43 -5 -25 -10 -34 -6 -104 47 -192 144 -372 316
-452 435 -165 243 -155 503 27 686 111 111 297 169 408 126 11 -4 23 11 46 56
69 136 210 220 369 220 59 0 151 -28 213 -65 l56 -33 38 65 c73 123 200 219
344 257 85 23 244 20 326 -5z m1578 6 c140 -37 266 -129 341 -250 l47 -75 33
26 c111 84 305 95 443 25 63 -32 139 -108 167 -166 l25 -54 63 5 c132 12 278
-46 375 -151 67 -72 98 -129 117 -222 18 -86 18 -130 0 -218 -30 -141 -117
-278 -285 -445 -81 -81 -237 -210 -254 -210 -3 0 -24 -13 -48 -29 -24 -16 -70
-43 -103 -59 -55 -29 -61 -30 -77 -15 -10 9 -18 22 -18 29 0 9 -10 11 -33 7
-58 -9 -140 15 -238 71 -51 30 -96 62 -99 72 -5 15 -9 12 -18 -14 -15 -43
-111 -138 -164 -162 -24 -11 -38 -20 -33 -20 59 -1 412 -34 486 -45 104 -16
211 -39 228 -50 12 -7 15 -125 4 -125 -5 0 -26 5 -48 10 -247 59 -844 112
-1413 125 -141 3 -272 8 -290 11 l-33 5 38 26 c21 14 57 39 80 56 l43 30 372
-14 c452 -17 462 -17 526 11 71 31 192 163 170 185 -2 2 -26 -7 -54 -20 -73
-35 -166 -49 -252 -37 -135 19 -182 61 -202 182 l-12 71 -37 -33 c-20 -18 -76
-64 -125 -101 -48 -38 -86 -70 -84 -73 7 -7 142 -32 210 -39 60 -6 68 -10 77
-34 25 -64 23 -66 -54 -63 -120 5 -429 43 -442 54 -14 11 -17 37 -7 62 3 9 58
59 123 113 219 183 474 447 594 614 58 82 101 173 124 264 10 39 22 73 27 77
19 14 -4 123 -44 204 -67 136 -162 208 -317 241 -167 34 -340 -38 -472 -197
l-48 -58 -12 38 c-6 22 -23 48 -38 60 -32 25 -27 40 45 127 76 91 191 158 317
183 69 14 217 11 279 -5z m-1797 -456 c27 -10 49 -43 58 -86 6 -32 -7 -47 -19
-20 -4 8 -5 7 -4 -3 2 -28 -14 -51 -48 -65 -19 -8 -34 -21 -34 -29 0 -24 -15
-19 -72 24 -29 22 -56 40 -60 40 -18 0 -7 78 14 105 39 50 93 61 165 34z
m1837 -20 c22 -19 38 -43 42 -65 7 -37 4 -44 -18 -48 -18 -3 -88 -70 -88 -84
0 -21 -27 -13 -44 12 -8 13 -29 27 -46 31 -47 10 -62 56 -40 121 14 40 55 63
112 64 39 0 54 -6 82 -31z m-1121 -176 c-7 -2 -19 -2 -25 0 -7 3 -2 5 12 5 14
0 19 -2 13 -5z m-418 -396 c19 -16 27 -34 31 -67 3 -32 2 -39 -5 -25 -8 18 -9
17 -12 -9 -2 -16 -10 -32 -18 -34 -10 -3 -12 1 -8 17 3 11 1 19 -4 15 -5 -3
-9 -16 -9 -28 0 -14 -10 -30 -26 -41 -24 -16 -27 -16 -46 1 -11 10 -34 23 -51
29 -37 12 -45 39 -28 95 20 67 121 95 176 47z m1221 8 c23 -10 39 -26 49 -49
20 -48 19 -63 -3 -43 -23 21 -50 24 -34 4 16 -19 9 -44 -23 -77 -33 -35 -65
-40 -65 -10 0 14 -7 20 -23 20 -13 0 -34 11 -47 25 -22 24 -23 25 -7 67 27 70
82 93 153 63z m-1123 -299 c45 -19 77 -57 84 -101 l6 -38 -49 6 c-27 3 -60 8
-74 11 -14 3 -37 8 -53 12 -50 11 -46 93 5 114 32 12 44 12 81 -4z m991 -9
c12 -9 19 -28 20 -52 1 -39 1 -39 -54 -56 -86 -26 -137 -31 -144 -13 -8 22 23
92 52 114 29 23 99 27 126 7z m367 -329 c1 -7 1 -16 0 -20 0 -4 8 -12 19 -18
14 -8 20 -8 20 0 0 6 5 8 10 5 6 -4 8 -10 5 -15 -3 -4 5 -6 17 -2 12 3 19 1
15 -4 -3 -6 3 -15 14 -22 11 -7 19 -8 19 -2 0 5 -6 10 -12 11 -9 0 -9 2 -2 5
7 3 31 -8 55 -24 24 -16 58 -33 74 -38 28 -8 26 -9 -21 -12 -66 -4 -150 27
-191 70 -33 35 -52 78 -34 78 6 0 12 -6 12 -12z m-1847 -33 c3 -8 1 -15 -4
-15 -6 0 -10 7 -10 15 0 8 2 15 4 15 2 0 6 -7 10 -15z m-933 -94 c-7 -5 -10
-14 -6 -21 6 -9 2 -9 -16 1 -23 12 -23 12 -4 20 27 11 43 11 26 0z m1459 -208
c0 -10 -7 -27 -16 -38 -12 -17 -16 -18 -24 -5 -5 8 -7 17 -6 20 2 3 6 13 9 23
4 9 13 17 22 17 8 0 15 -8 15 -17z m194 2 c7 -20 -2 -42 -20 -49 -16 -6 -35
30 -27 52 7 17 40 15 47 -3z m471 5 c11 -18 -6 -50 -26 -50 -10 0 -20 5 -20
10 -1 6 -2 16 -3 23 -1 6 -1 15 1 20 6 11 41 9 48 -3z m191 -4 c7 -18 -13 -56
-29 -56 -7 0 -12 14 -12 35 0 27 4 35 18 35 10 0 20 -6 23 -14z m-1238 -8 c19
-19 14 -30 -8 -18 -17 9 -22 7 -30 -12 -5 -13 -9 -17 -9 -10 -1 17 17 52 27
52 5 0 13 -5 20 -12z m195 -8 c3 -12 -2 -27 -11 -36 -14 -15 -17 -15 -28 0
-16 22 -6 56 16 56 10 0 20 -9 23 -20z m1227 15 c0 -3 -9 -15 -20 -27 -20 -22
-26 -15 -14 16 6 15 34 23 34 11z m184 -1 c20 -8 21 -50 2 -57 -20 -8 -39 18
-31 43 7 22 7 22 29 14z m-1809 -36 c-4 -37 -4 -38 -20 -38 -15 0 -21 40 -8
53 14 15 30 6 28 -15z m2013 0 c-3 -21 -48 -39 -48 -19 0 23 14 41 32 41 14 0
19 -6 16 -22z m-2198 -3 c9 -10 9 -15 1 -15 -6 0 -11 5 -11 11 0 5 -4 7 -10 4
-5 -3 -10 -1 -10 4 0 16 16 13 30 -4z m2399 -7 c0 -13 -3 -17 -6 -11 -3 9 -10
10 -24 3 -21 -12 -22 -10 -13 14 10 25 44 20 43 -6z m-1242 -59 c8 -8 21 -8
49 1 30 10 121 12 399 7 576 -10 1043 -47 1453 -113 l42 -7 0 -59 0 -60 -37 6
c-88 14 -371 46 -533 60 -620 55 -1813 60 -2541 11 -296 -20 -659 -57 -711
-71 -16 -5 -18 2 -18 54 l0 59 93 16 c191 34 529 64 972 87 410 21 816 25 832
9z m1883 -29 c0 -5 -4 -10 -10 -10 -5 0 -10 5 -10 10 0 6 5 10 10 10 6 0 10
-4 10 -10z m-2595 -399 c202 -56 353 -162 458 -322 131 -197 157 -544 59 -788
-49 -123 -159 -280 -184 -264 -7 3 -8 1 -4 -5 14 -23 -135 -135 -154 -116 -5
5 -48 81 -95 169 l-86 160 36 67 c45 83 65 175 65 299 0 213 -79 357 -238 432
l-67 32 -282 3 -283 3 0 -555 0 -556 158 0 c86 0 207 -3 268 -6 l111 -7 35
-66 c20 -36 38 -75 40 -86 1 -11 11 -26 21 -33 9 -7 15 -17 12 -22 -3 -4 1
-11 7 -13 7 -3 4 -6 -8 -6 -20 -1 -36 20 -49 67 -5 19 -13 22 -51 22 l-45 0
15 -27 c12 -25 84 -174 343 -713 41 -85 106 -221 144 -301 77 -164 124 -256
142 -278 13 -16 88 -64 91 -59 11 15 36 79 36 92 0 9 5 16 11 16 5 0 7 5 4 10
-3 6 -1 10 5 10 6 0 8 4 5 10 -7 12 32 90 45 90 6 0 7 -7 1 -17 -35 -70 -38
-103 -7 -103 16 0 18 2 7 9 -9 6 -11 18 -7 36 6 23 9 25 23 13 15 -12 15 -13
0 -16 -10 -2 -17 -7 -17 -12 0 -15 32 -20 48 -8 13 11 15 10 9 -4 -7 -21 -3
-22 24 -7 16 8 25 7 38 -5 10 -9 27 -16 39 -16 12 0 22 -4 22 -10 0 -10 -21
-14 -47 -11 -7 1 -13 -3 -13 -9 0 -12 59 -10 67 3 3 4 -1 22 -7 38 -21 50 -6
42 31 -16 31 -49 101 -114 139 -128 9 -3 5 -6 -10 -6 -14 -1 -36 5 -50 12 -14
7 -36 12 -50 12 -14 -1 -60 -2 -102 -3 l-77 -2 10 -30 c6 -16 16 -27 21 -24
11 7 28 -13 28 -33 0 -7 -7 -13 -15 -13 -8 0 -15 -4 -15 -10 0 -5 15 -10 34
-10 19 0 38 -5 41 -10 4 -6 54 -10 117 -10 61 0 109 -2 107 -4 -2 -2 -159 -6
-349 -9 -477 -8 -541 3 -649 111 -61 62 -96 125 -292 527 -251 517 -292 603
-304 645 -7 24 -7 24 9 5 15 -19 15 -18 2 15 -14 35 -14 35 -80 35 l-66 1 -2
-446 c-4 -611 -4 -598 18 -645 24 -49 94 -103 145 -111 43 -7 46 -16 33 -96
l-7 -38 -421 1 c-244 0 -413 4 -401 9 11 5 46 9 77 9 31 1 60 6 63 12 12 18
-3 22 -45 11 -22 -5 -37 -6 -34 -1 3 5 -5 9 -18 10 -23 1 -23 1 2 8 14 5 29 4
35 -1 20 -18 27 -7 7 12 -12 12 -22 25 -22 30 0 6 -7 10 -16 10 -24 0 3 24 57
48 24 12 40 22 34 22 -5 0 -3 6 6 13 35 27 49 104 47 251 -1 78 -3 112 -5 76
-2 -36 -8 -69 -13 -74 -10 -10 -16 482 -18 1597 -2 515 -6 806 -12 818 -10 17
-8 18 15 9 14 -5 51 -7 83 -5 31 3 100 7 152 9 52 3 105 7 117 10 12 2 39 0
59 -6 20 -5 40 -6 43 -1 6 8 75 10 514 14 195 1 251 5 262 15 17 17 45 18 45
2 0 -9 3 -9 11 -1 8 8 20 6 45 -9 19 -11 34 -17 34 -14 0 9 -82 54 -130 72
-122 44 -141 46 -750 53 -322 4 -592 10 -600 14 -8 3 -34 11 -57 17 l-43 11 0
60 0 60 693 -3 c679 -4 693 -5 772 -27z m2250 19 c256 -29 477 -171 569 -367
49 -102 61 -160 60 -288 0 -103 -4 -131 -27 -193 -74 -211 -242 -368 -442
-417 -39 -9 -86 -15 -105 -13 l-35 3 -57 155 c-32 85 -58 158 -58 161 0 4 21
10 47 14 216 32 331 200 267 390 -17 48 -78 119 -137 161 l-29 20 96 -4 c59
-3 96 -1 96 5 0 6 12 10 27 9 42 -2 39 22 -9 67 -56 54 -147 102 -234 124 -91
22 -422 25 -504 4 -118 -30 -214 -97 -250 -176 -27 -60 -33 -85 -21 -85 6 0
11 5 11 11 0 6 6 9 13 6 6 -2 59 16 117 40 58 24 128 46 155 49 28 3 54 8 59
12 5 3 6 0 2 -6 -4 -7 -20 -12 -36 -12 -16 0 -32 -5 -36 -11 -3 -6 -15 -9 -25
-6 -11 3 -19 1 -19 -5 0 -5 -5 -8 -12 -6 -15 5 -224 -86 -249 -108 -19 -17
-43 -74 -30 -74 4 0 97 34 206 75 109 42 202 74 207 73 10 -4 66 -137 149
-358 28 -74 129 -331 224 -570 95 -239 214 -545 265 -680 169 -451 168 -449
198 -457 15 -5 70 -8 122 -8 85 1 102 4 160 31 36 17 88 52 117 78 49 44 53
51 60 109 4 34 7 67 7 72 -1 6 21 11 48 13 43 3 52 -1 78 -27 26 -25 30 -37
30 -83 -1 -98 -63 -188 -187 -269 -108 -70 -186 -94 -308 -94 -110 0 -131 7
-267 95 -83 54 -181 83 -283 84 -142 2 -481 -7 -452 -11 15 -2 27 -9 27 -14 0
-5 9 -9 21 -9 14 0 19 -5 16 -14 -4 -9 1 -16 11 -18 14 -3 12 -7 -8 -18 -36
-21 -785 -29 -777 -8 3 7 22 64 42 126 l36 112 453 0 c249 0 455 3 459 6 3 3
-11 54 -32 113 -70 193 -191 522 -307 836 -63 171 -122 329 -131 353 -9 23
-18 42 -22 42 -3 0 -90 -256 -194 -568 -173 -524 -287 -847 -305 -863 -4 -4
-54 17 -112 46 -273 136 -271 135 -252 158 5 7 8 21 6 32 -2 11 15 79 37 150
39 125 467 1407 607 1817 l67 198 345 0 c190 0 386 -5 435 -10z m-266 -323
c27 -1 44 -5 38 -9 -15 -10 -119 2 -132 14 -6 6 0 7 17 3 15 -4 49 -8 77 -8z
m248 -23 c-3 -3 -12 -4 -19 -1 -8 3 -5 6 6 6 11 1 17 -2 13 -5z m-2472 -718
c113 -51 181 -144 357 -486 143 -276 226 -397 369 -538 119 -116 220 -186 399
-274 91 -45 167 -83 168 -84 2 -1 -5 -22 -15 -46 -11 -24 -23 -55 -26 -70 -4
-16 -12 -28 -18 -28 -24 0 -247 133 -322 192 -70 56 -48 22 55 -84 121 -123
200 -185 300 -235 169 -83 292 -101 437 -64 98 26 130 21 166 -21 42 -50 29
-95 -36 -122 -55 -23 -308 -31 -401 -12 -195 38 -321 119 -569 366 -326 325
-509 587 -680 975 -95 216 -146 298 -217 347 -44 31 -52 33 -131 33 l-83 0
-28 39 c-30 44 -29 64 5 96 59 55 170 62 270 16z m2565 -1773 c8 -27 26 -76
42 -111 15 -35 27 -66 26 -70 -2 -14 24 -72 34 -72 5 0 6 -5 3 -10 -9 -14 42
-31 72 -24 14 4 21 9 15 13 -5 3 -12 16 -16 29 -5 15 -15 22 -34 22 -15 0 -34
5 -42 10 -11 8 -8 9 11 4 15 -3 30 -1 33 5 5 7 -6 11 -31 12 l-38 2 35 6 c46
9 66 -1 73 -39 8 -37 44 -43 51 -7 13 57 15 58 13 7 -2 -43 -6 -56 -20 -60
-10 -3 36 -6 102 -7 66 -2 123 1 126 6 3 6 -11 8 -32 5 -52 -5 -173 7 -173 17
0 5 7 9 15 9 8 0 15 7 15 15 0 20 12 19 36 -3 11 -10 29 -21 40 -24 17 -4 20
-2 17 13 -4 14 0 19 16 19 11 0 21 -6 21 -14 0 -9 8 -12 24 -9 13 3 27 0 30
-6 10 -16 26 -14 26 3 0 8 -11 17 -25 20 -33 8 -33 30 1 23 22 -4 25 -2 20 17
-7 27 8 54 19 36 4 -7 1 -16 -6 -21 -20 -13 -1 -11 23 2 l21 11 -24 19 c-13
10 -19 19 -13 19 17 0 75 -26 70 -31 -3 -3 4 -6 16 -6 l21 -2 -22 15 c-11 8
-21 20 -21 26 0 6 9 3 20 -7 12 -11 51 -26 88 -36 l67 -17 3 -42 c2 -24 1 -54
-3 -67 l-5 -23 -289 0 c-222 0 -291 3 -294 13 -4 9 -8 8 -16 -3 -20 -28 -43 4
-83 115 -55 152 -87 256 -78 250 4 -2 13 -26 20 -52z m-1670 -13 c0 -5 -5 -10
-11 -10 -5 0 -7 5 -4 10 3 6 8 10 11 10 2 0 4 -4 4 -10z m1752 -85 c3 -13 1
-22 -3 -19 -5 3 -9 -2 -9 -10 0 -9 5 -16 11 -16 5 0 7 -5 3 -11 -12 -20 -24
16 -18 50 8 37 10 38 16 6z m151 -12 c-7 -2 -19 -2 -25 0 -7 3 -2 5 12 5 14 0
19 -2 13 -5z m251 -7 c-10 -8 -21 -12 -24 -10 -5 6 21 24 34 24 6 0 1 -6 -10
-14z m-4124 -35 c0 -11 -73 -41 -100 -41 -11 0 -20 -4 -20 -10 0 -5 -5 -10
-11 -10 -30 0 4 24 61 44 36 13 66 24 68 25 1 0 2 -3 2 -8z m4090 -32 c0 -16
-7 -19 -42 -17 -37 1 -39 2 -10 5 24 3 32 9 32 24 0 11 5 17 10 14 6 -3 10
-15 10 -26z m-2103 -5 c-3 -3 -12 -4 -19 -1 -8 3 -5 6 6 6 11 1 17 -2 13 -5z
m1878 -14 c-3 -5 -10 -10 -16 -10 -5 0 -9 5 -9 10 0 6 7 10 16 10 8 0 12 -4 9
-10z m109 -5 c4 -13 2 -14 -14 -5 -23 13 -26 20 -6 20 8 0 16 -7 20 -15z
m-4107 -62 c-3 -10 -5 -2 -5 17 0 19 2 27 5 18 2 -10 2 -26 0 -35z m96 30 c-7
-2 -21 -2 -30 0 -10 3 -4 5 12 5 17 0 24 -2 18 -5z m2114 -59 c-3 -3 -12 -4
-19 -1 -8 3 -5 6 6 6 11 1 17 -2 13 -5z m86 -1 c-7 -2 -19 -2 -25 0 -7 3 -2 5
12 5 14 0 19 -2 13 -5z m-2399 -492 c102 -17 142 -120 75 -189 -29 -30 -30
-34 -19 -61 6 -16 20 -37 31 -47 29 -26 23 -39 -18 -38 -35 1 -41 5 -68 52
-29 50 -32 52 -73 52 l-44 0 4 -50 3 -50 -39 0 -39 0 6 98 c4 53 7 127 7 164
l0 67 33 4 c55 7 90 6 141 -2z m520 -21 c48 -33 76 -87 76 -145 0 -52 -10 -77
-49 -118 -37 -41 -73 -57 -126 -57 -120 0 -206 107 -176 217 14 51 54 101 96
119 46 22 136 13 179 -16z m231 22 c6 -4 22 -25 38 -47 15 -22 36 -51 46 -64
l19 -25 45 71 c45 70 46 71 86 70 23 -1 41 -3 41 -4 0 -1 -31 -47 -70 -102
-69 -99 -70 -101 -70 -166 l0 -65 -34 0 -34 0 -4 68 c-3 65 -6 72 -71 164 -37
53 -67 99 -67 102 0 9 63 7 75 -2z m515 -2 c0 -8 55 -141 114 -272 l26 -58
-39 0 c-36 0 -40 3 -51 35 l-12 36 -76 -3 c-76 -3 -77 -4 -91 -35 -11 -24 -21
-32 -47 -35 -20 -2 -34 0 -34 7 0 25 137 325 150 329 29 8 60 6 60 -4z m1238
-5 c10 -13 68 -143 139 -312 4 -9 -7 -13 -34 -13 -35 0 -40 3 -52 35 l-12 35
-75 0 -75 0 -14 -34 c-12 -28 -21 -34 -50 -38 -19 -2 -35 0 -35 4 0 8 77 196
120 291 19 42 24 47 51 45 17 -1 33 -7 37 -13z m530 -11 c29 -14 52 -29 52
-33 0 -5 -9 -16 -20 -26 -19 -18 -22 -18 -56 -2 -89 43 -167 1 -167 -89 0 -40
4 -51 31 -76 23 -19 43 -28 68 -28 48 0 94 25 94 52 0 18 -4 20 -40 15 -40 -5
-40 -5 -40 29 l0 34 69 0 69 0 7 -40 c14 -84 -16 -127 -106 -151 -175 -47
-297 150 -178 286 52 59 134 70 217 29z m492 -15 l0 -29 -95 0 -95 0 0 -35 0
-35 75 0 75 0 0 -30 0 -30 -75 0 -75 0 0 -40 0 -40 95 0 95 0 0 -30 0 -30
-130 0 -130 0 0 165 0 164 123 3 c67 2 125 2 130 0 4 -2 7 -16 7 -33z m226
-12 c27 -29 66 -73 86 -98 l37 -44 0 92 c1 50 5 94 11 98 5 3 21 3 35 -1 l25
-6 0 -164 c0 -205 -2 -206 -122 -66 l-83 97 -3 -96 -3 -97 -34 -4 -35 -4 0
173 c0 203 4 209 86 120z m577 37 c18 -9 40 -23 49 -32 17 -14 16 -16 -8 -39
l-25 -23 -26 20 c-67 52 -163 4 -163 -82 1 -90 90 -138 161 -86 l29 22 27 -26
26 -26 -44 -29 c-54 -35 -135 -39 -189 -7 -74 43 -100 146 -59 231 39 80 144
117 222 77z m272 -55 c55 -80 50 -80 103 11 14 25 27 47 28 48 5 7 84 7 84 0
0 -4 -29 -49 -65 -100 -64 -92 -65 -94 -65 -159 l0 -67 -35 -4 -35 -4 0 66 c0
62 -2 69 -53 145 -30 44 -62 92 -71 108 l-18 27 39 0 c38 0 42 -3 88 -71z
m-2995 -74 l0 -135 90 0 90 0 0 -30 0 -30 -118 0 -119 0 -6 98 c-4 53 -7 127
-7 165 l0 67 35 0 35 0 0 -135z"/>
<path d="M5300 8584 c0 -3 40 -47 89 -98 65 -67 89 -86 88 -71 0 11 3 29 7 40
5 14 3 12 -7 -4 -9 -15 -17 -20 -21 -12 -4 6 -4 11 1 11 4 0 21 21 38 48 41
65 58 80 97 85 18 2 -40 5 -129 5 -90 1 -163 -1 -163 -4z"/>
<path d="M5275 8560 c-5 -8 -10 -75 -11 -149 -2 -133 -1 -134 17 -110 20 26
22 61 10 199 -4 54 -9 71 -16 60z"/>
<path d="M5205 8199 c-4 -6 -5 -12 -2 -15 2 -3 7 2 10 11 7 17 1 20 -8 4z"/>
<path d="M5167 8153 c-4 -3 -7 -11 -7 -17 0 -6 5 -5 12 2 6 6 9 14 7 17 -3 3
-9 2 -12 -2z"/>
<path d="M5420 7630 c-8 -5 -12 -12 -9 -15 4 -3 12 1 19 10 14 17 11 19 -10 5z"/>
<path d="M5326 7555 c-9 -14 -13 -25 -9 -25 10 0 36 40 30 46 -2 3 -12 -7 -21
-21z"/>
<path d="M5240 7546 c0 -2 7 -9 15 -16 13 -11 14 -10 9 4 -5 14 -24 23 -24 12z"/>
<path d="M5179 6832 c-116 -35 -183 -126 -183 -248 0 -73 30 -140 87 -197 138
-138 375 -94 466 88 32 65 28 177 -10 250 -14 27 -32 51 -40 53 -12 3 -12 2 0
-6 16 -12 5 -35 -14 -28 -11 4 -11 -1 0 -27 7 -18 15 -48 17 -67 2 -29 -1 -36
-17 -38 -17 -2 -20 -9 -17 -43 4 -40 4 -41 -24 -37 -23 2 -30 -1 -32 -19 -5
-36 -57 -59 -120 -54 -7 1 -17 11 -22 24 -8 20 -9 19 -9 -10 -1 -18 -3 -33 -5
-33 -2 0 -24 8 -48 19 -61 26 -74 44 -60 86 l10 35 -39 0 c-57 0 -67 26 -44
119 15 60 39 104 52 93 2 -2 25 7 51 20 49 24 114 29 167 15 24 -7 28 -6 18 4
-19 19 -121 20 -184 1z"/>
<path d="M3553 7705 c-58 -29 -113 -94 -139 -162 -15 -39 -16 -55 -6 -118 23
-149 88 -263 280 -492 56 -67 102 -127 102 -132 0 -15 -13 -14 -28 1 -7 7 -12
9 -12 5 0 -4 -9 -3 -21 3 -15 9 -24 8 -35 -1 -12 -10 -13 -9 -8 7 5 15 4 16
-6 7 -43 -40 -267 192 -358 372 -42 82 -63 165 -64 255 -1 42 -4 64 -8 50 -5
-23 -11 -25 -85 -30 -102 -6 -159 -34 -225 -108 -122 -137 -104 -322 52 -527
105 -140 376 -387 467 -428 81 -36 205 -4 290 73 l34 31 -7 113 c-6 103 -5
115 13 137 21 27 79 49 127 49 40 0 90 -33 98 -64 11 -43 -12 -69 -78 -90 -18
-6 -18 -7 0 -27 11 -12 42 -33 69 -47 59 -29 172 -41 227 -23 57 19 121 65
152 109 l29 42 -119 123 c-181 185 -264 296 -330 442 -36 79 -53 145 -61 245
-6 83 -7 85 -47 123 -94 88 -205 110 -303 62z m194 -180 c13 -14 23 -38 22
-53 0 -15 -3 -21 -6 -14 -8 21 -33 13 -33 -11 0 -59 -67 -89 -104 -48 -10 11
-23 17 -30 15 -25 -10 -38 22 -26 63 19 69 41 85 110 79 33 -3 50 -11 67 -31z
m-510 -286 c12 -5 32 -27 43 -50 21 -41 20 -63 -2 -41 -7 7 -16 12 -22 12 -6
0 -5 -5 2 -12 27 -27 3 -82 -45 -107 -13 -7 -23 -18 -23 -26 0 -22 -24 -18
-46 6 -10 12 -36 33 -58 46 -37 24 -38 26 -33 70 11 99 84 139 184 102z m656
-60 c30 -14 57 -59 57 -96 l-1 -28 -14 33 c-19 43 -38 42 -30 -2 6 -29 3 -36
-25 -56 -30 -21 -34 -22 -78 -8 -46 15 -47 16 -50 63 -2 35 2 52 15 67 33 37
82 47 126 27z m-364 -396 c39 -37 45 -62 21 -93 l-20 -25 -6 23 c-4 12 -10 22
-15 22 -12 0 -11 -17 1 -25 20 -12 9 -41 -26 -69 -32 -26 -38 -27 -48 -14 -7
9 -28 23 -48 31 -41 17 -53 43 -44 92 15 80 125 114 185 58z"/>
<path d="M3400 6360 c0 -5 5 -10 11 -10 5 0 7 5 4 10 -3 6 -8 10 -11 10 -2 0
-4 -4 -4 -10z"/>
<path d="M6795 7701 c-33 -17 -75 -44 -93 -61 -31 -29 -33 -35 -41 -128 -20
-221 -141 -430 -399 -687 l-115 -115 40 -48 c22 -26 59 -60 82 -77 37 -26 53
-30 119 -33 93 -4 168 20 228 73 36 31 37 34 16 35 -38 0 -60 17 -73 57 -11
35 -10 38 20 65 36 32 89 37 146 14 59 -25 67 -49 59 -175 l-7 -110 34 -32
c77 -73 204 -108 276 -77 105 45 347 258 474 416 141 176 183 341 119 469 -59
118 -162 186 -282 186 -38 0 -70 -2 -73 -4 -2 -2 -13 -48 -23 -101 -41 -199
-194 -423 -364 -531 -64 -41 -143 -66 -159 -50 -10 10 -8 14 152 210 112 137
174 234 204 318 11 33 26 70 33 82 27 49 8 140 -46 222 -29 43 -48 59 -96 82
-83 40 -150 39 -231 0z m176 -170 c26 -27 43 -91 20 -76 -5 3 -11 -5 -13 -17
-2 -13 -11 -24 -23 -27 -11 -2 -24 -9 -28 -17 -4 -8 -17 -14 -28 -14 -27 0
-89 42 -89 60 0 13 -1 13 -11 0 -8 -11 -9 -5 -4 24 12 70 39 94 108 95 30 1
45 -6 68 -28z m500 -309 c27 -24 32 -37 35 -83 3 -36 1 -47 -4 -34 -9 19 -9
19 -16 -2 -4 -13 -12 -23 -17 -23 -5 0 -9 -6 -9 -13 0 -7 -20 -28 -45 -45
l-46 -32 -9 24 c-5 14 -25 32 -44 41 -66 31 -70 104 -9 167 23 24 35 28 80 28
44 0 58 -5 84 -28z m-706 -48 c21 -10 38 -27 44 -46 15 -41 14 -55 -1 -40 -7
7 -19 12 -27 12 -13 -1 -13 -3 2 -14 18 -14 18 -14 -2 -21 -11 -3 -23 -15 -26
-26 -10 -29 -36 -38 -71 -23 -49 21 -74 58 -64 95 21 72 77 96 145 63z m405
-387 c20 -12 50 -65 50 -86 0 -7 -8 -6 -23 4 -26 16 -43 9 -27 -10 12 -15 -7
-65 -23 -65 -6 0 -20 -9 -32 -20 l-21 -20 -42 32 c-23 18 -42 38 -42 45 0 6
-8 16 -17 22 -16 8 -16 12 2 51 13 28 30 48 50 56 33 15 94 11 125 -9z"/>
<path d="M4435 7570 c-3 -5 1 -10 9 -10 9 0 16 5 16 10 0 6 -4 10 -9 10 -6 0
-13 -4 -16 -10z"/>
<path d="M3700 3969 c0 -39 3 -50 10 -39 9 13 11 13 20 0 12 -17 30 -78 30
-100 0 -9 7 -5 17 10 10 14 17 30 15 35 -1 6 9 -3 23 -18 14 -15 25 -24 25
-20 0 9 -29 54 -40 63 -3 3 -16 21 -27 40 -12 20 -33 46 -47 59 l-26 24 0 -54z"/>
<path d="M3732 2765 c0 -16 2 -22 5 -12 2 9 2 23 0 30 -3 6 -5 -1 -5 -18z"/>
<path d="M5098 2693 c7 -3 16 -2 19 1 4 3 -2 6 -13 5 -11 0 -14 -3 -6 -6z"/>
<path d="M7165 3200 c3 -5 11 -10 16 -10 6 0 7 5 4 10 -3 6 -11 10 -16 10 -6
0 -7 -4 -4 -10z"/>
<path d="M6985 2450 c3 -5 8 -10 11 -10 2 0 4 5 4 10 0 6 -5 10 -11 10 -5 0
-7 -4 -4 -10z"/>
<path d="M7138 2443 c57 -2 147 -2 200 0 53 1 7 3 -103 3 -110 0 -154 -2 -97
-3z"/>
<path d="M2880 1850 l0 -50 59 0 c80 0 91 5 91 46 0 42 -21 54 -94 54 l-56 0
0 -50z"/>
<path d="M3336 1869 c-61 -72 -16 -179 74 -179 34 0 48 6 76 34 44 44 47 99 8
145 -23 27 -32 31 -79 31 -47 0 -56 -4 -79 -31z"/>
<path d="M4193 1815 l-21 -55 50 0 c27 0 48 3 46 8 -1 4 -11 28 -22 55 -10 26
-22 47 -26 47 -4 0 -16 -25 -27 -55z"/>
<path d="M5455 1865 c-4 -11 -14 -35 -21 -54 -20 -49 -19 -51 32 -51 51 0 51
1 14 85 -15 35 -18 38 -25 20z"/>
</g>
</svg>
